<svg width="120" height="120" viewBox="0 0 120 120" fill="none" xmlns="http://www.w3.org/2000/svg">
  <!-- Left shape (stylized G/arrow) -->
  <path d="M30 20 L60 20 L60 40 L40 40 L40 80 L60 80 L60 100 L30 100 L30 80 L50 80 L50 60 L30 60 L30 20 Z" fill="#D4A76F"/>
  
  <!-- Right shape (stylized I with angled top) -->
  <path d="M90 20 L90 100 L70 100 L70 80 L80 80 L80 40 L70 40 L70 20 L90 20 Z" fill="#D4A76F"/>
  
  <!-- Central white negative space (stylized I/cross) -->
  <path d="M60 20 L70 20 L70 100 L60 100 L60 20 Z" fill="white"/>
  <path d="M50 20 L60 20 L60 100 L50 100 L50 20 Z" fill="white"/>
</svg>

